<svg width="52" height="52" viewBox="0 0 52 52" fill="none" xmlns="http://www.w3.org/2000/svg">
<path d="M51.8422 7.48534C51.6034 6.80993 51.1593 6.22619 50.572 5.816C49.9846 5.40582 49.2837 5.18977 48.5673 5.19816H45.7603L44.9546 2.67705C44.5908 1.1176 43.1872 0 41.6018 0C40.0164 0 38.6129 1.1176 38.249 2.70304L37.4433 5.19816H34.6623C33.1808 5.19816 31.8553 6.10783 31.3874 7.48534C30.8936 8.94083 31.4914 10.5263 32.8429 11.332L35.1041 12.6835L34.0645 15.9064C33.4667 17.4138 33.9605 19.1552 35.2341 20.1169C35.8319 20.5587 36.5596 20.7926 37.2614 20.7926C38.0671 20.7926 38.8468 20.5067 39.4966 19.9609L41.6018 18.1416L43.7071 19.9609C44.3568 20.5067 45.1366 20.7926 45.9423 20.7926C46.644 20.7926 47.3718 20.5587 47.9696 20.1169C49.2691 19.1552 49.7369 17.4138 49.1391 15.9064L48.1255 12.6835L50.3867 11.332C51.7122 10.5263 52.31 8.94083 51.8422 7.48534ZM41.6018 12.9954C40.1723 12.9954 39.0027 11.8258 39.0027 10.3963C39.0027 8.96682 40.1723 7.79723 41.6018 7.79723C43.0313 7.79723 44.2009 8.96682 44.2009 10.3963C44.2009 11.8258 43.0313 12.9954 41.6018 12.9954ZM29.88 22.1182C28.7624 21.0006 27.4368 20.2208 26.0073 19.701V15.5945H23.4083V19.1812C23.1224 19.1552 22.8105 19.1032 22.5246 19.1032C19.8735 19.1032 17.1965 20.1169 15.1692 22.1441C14.7533 22.56 14.3895 23.0278 14.0516 23.5217L10.4129 22.1441C8.46519 21.4597 6.3259 21.5728 4.46126 22.4588C2.59662 23.3449 1.15781 24.9321 0.458402 26.8745C-0.243349 28.8238 -0.139386 30.955 0.770291 32.8264C1.36808 34.0739 2.27776 35.0876 3.36937 35.8413C2.38172 39.35 3.21343 43.2487 5.96845 46.0037C7.27701 47.3033 8.90914 48.2295 10.6959 48.6865C12.4826 49.1434 14.359 49.1145 16.1308 48.6028C16.8846 49.6944 17.8982 50.604 19.1458 51.2018C20.2374 51.7217 21.355 51.9816 22.4986 51.9816C23.3823 51.9816 24.266 51.8256 25.1237 51.5397C26.0922 51.1945 26.983 50.6616 27.7452 49.9715C28.5074 49.2814 29.1259 48.4477 29.5653 47.5181C30.0048 46.5886 30.2565 45.5814 30.306 44.5545C30.3555 43.5275 30.2019 42.5008 29.854 41.5333L28.5025 37.9725C28.9703 37.6347 29.4381 37.2708 29.88 36.8549C32.1412 34.5937 33.1028 31.5528 32.8429 28.6158H36.4037V26.0168H32.2711C31.7773 24.5873 30.9976 23.2617 29.88 22.1182ZM6.9561 31.9427C6.30633 31.7088 5.78651 31.2409 5.47462 30.6171C5.16273 29.9934 5.13674 29.2916 5.37066 28.6418C5.86449 27.2903 7.34596 26.5886 8.6455 27.0564L16.8586 30.1493C13.8696 31.7088 10.023 33.0343 6.9561 31.9427ZM23.3823 46.6275C22.7325 46.8614 22.0308 46.8354 21.407 46.5235C21.0987 46.3769 20.8228 46.1704 20.5952 45.9161C20.3676 45.6617 20.193 45.3646 20.0814 45.042C18.9898 41.9751 20.3154 38.1545 21.9008 35.1655L24.9677 43.3006C25.4355 44.6522 24.7338 46.1596 23.3823 46.6275ZM26.5272 32.7484L24.9417 28.5639C24.9417 28.5379 24.9157 28.5119 24.8897 28.4859L24.7338 28.174C24.6825 28.073 24.6216 27.9773 24.5519 27.8881L24.3179 27.6542L24.084 27.4203C24.0061 27.3423 23.9021 27.2903 23.7981 27.2383C23.6942 27.1864 23.6162 27.1084 23.4862 27.0824C23.4602 27.0824 23.4343 27.0564 23.4083 27.0304L19.2497 25.471C20.236 24.6421 21.499 24.2164 22.7858 24.279C24.0726 24.3417 25.2882 24.8881 26.1893 25.8088C28.0866 27.7062 28.1906 30.6951 26.5272 32.7484Z" fill="#FFF2DF"/>
</svg>
