<svg width="22" height="19" viewBox="0 0 22 19" fill="none" xmlns="http://www.w3.org/2000/svg">
<path d="M11 2.61821C9.36884 2.61856 7.77438 3.10244 6.41813 4.0087C5.06189 4.91497 4.00473 6.20293 3.38027 7.70984C2.7558 9.21674 2.59206 10.8749 2.90972 12.4749C3.22739 14.0748 4.01221 15.5447 5.165 16.6987C5.37585 16.91 5.49415 17.1963 5.49386 17.4948C5.49358 17.7932 5.37475 18.0794 5.1635 18.2902C4.95226 18.5011 4.66591 18.6193 4.36744 18.6191C4.06898 18.6188 3.78285 18.5 3.572 18.2887C2.10451 16.8199 1.10543 14.9489 0.701061 12.9124C0.29669 10.8759 0.505183 8.76515 1.30018 6.84708C2.09519 4.92902 3.441 3.2897 5.16751 2.13637C6.89402 0.983041 8.92371 0.367468 11 0.367468C13.0763 0.367468 15.106 0.983041 16.8325 2.13637C18.559 3.2897 19.9048 4.92902 20.6998 6.84708C21.4948 8.76515 21.7033 10.8759 21.2989 12.9124C20.8946 14.9489 19.8955 16.8199 18.428 18.2887C18.3243 18.3962 18.2002 18.482 18.063 18.541C17.9257 18.6 17.7781 18.6311 17.6287 18.6325C17.4794 18.6339 17.3312 18.6055 17.1929 18.549C17.0546 18.4925 16.929 18.409 16.8233 18.3034C16.7176 18.1978 16.634 18.0723 16.5774 17.934C16.5208 17.7958 16.4923 17.6477 16.4935 17.4983C16.4947 17.3489 16.5257 17.2013 16.5846 17.064C16.6435 16.9267 16.7291 16.8025 16.8365 16.6987C17.9894 15.5446 18.7742 14.0746 19.0919 12.4745C19.4095 10.8744 19.2456 9.21611 18.621 7.70915C17.9963 6.20218 16.9389 4.91423 15.5824 4.00808C14.226 3.10193 12.6313 2.61826 11 2.61821ZM11 8.61821C10.4033 8.61821 9.83097 8.85526 9.40901 9.27722C8.98706 9.69917 8.75 10.2715 8.75 10.8682C8.75 11.4649 8.98706 12.0372 9.40901 12.4592C9.83097 12.8812 10.4033 13.1182 11 13.1182C11.5967 13.1182 12.169 12.8812 12.591 12.4592C13.013 12.0372 13.25 11.4649 13.25 10.8682C13.25 10.2715 13.013 9.69917 12.591 9.27722C12.169 8.85526 11.5967 8.61821 11 8.61821ZM6.875 10.8682C6.87498 10.19 7.0422 9.5222 7.36184 8.92401C7.68149 8.32582 8.1437 7.81568 8.70755 7.43875C9.27141 7.06182 9.9195 6.82974 10.5944 6.76306C11.2694 6.69638 11.9504 6.79715 12.5771 7.05646C13.2038 7.31576 13.7569 7.7256 14.1874 8.24968C14.6179 8.77375 14.9126 9.3959 15.0453 10.061C15.178 10.7262 15.1446 11.4137 14.9482 12.0629C14.7517 12.7121 14.3982 13.3028 13.919 13.7827C13.7082 13.994 13.5899 14.2803 13.5901 14.5788C13.5904 14.8772 13.7093 15.1634 13.9205 15.3742C14.1317 15.5851 14.4181 15.7033 14.7166 15.7031C15.015 15.7028 15.3012 15.584 15.512 15.3727C16.4026 14.4808 17.0088 13.3448 17.254 12.1085C17.4992 10.8721 17.3723 9.5908 16.8896 8.42649C16.4068 7.26218 15.5897 6.26712 14.5415 5.56705C13.4933 4.86699 12.2612 4.49335 11.0008 4.49335C9.74031 4.49335 8.50816 4.86699 7.46001 5.56705C6.41186 6.26712 5.59475 7.26218 5.11196 8.42649C4.62916 9.5908 4.50235 10.8721 4.74754 12.1085C4.99273 13.3448 5.59892 14.4808 6.4895 15.3727C6.5925 15.4832 6.7167 15.5719 6.8547 15.6334C6.9927 15.6949 7.14167 15.7279 7.29272 15.7306C7.44378 15.7333 7.59382 15.7055 7.7339 15.6489C7.87398 15.5923 8.00123 15.5081 8.10806 15.4013C8.21489 15.2944 8.29911 15.1672 8.35569 15.0271C8.41227 14.887 8.44006 14.737 8.43739 14.5859C8.43473 14.4349 8.40166 14.2859 8.34018 14.1479C8.27869 14.0099 8.19003 13.8857 8.0795 13.7827C7.69674 13.4001 7.3933 12.9457 7.1866 12.4456C6.9799 11.9454 6.87401 11.4094 6.875 10.8682Z" fill="#FFF2DF"/>
</svg>
