<svg width="57" height="49" viewBox="0 0 57 49" fill="none" xmlns="http://www.w3.org/2000/svg">
<path d="M57 46.0384C57 46.6199 56.769 47.1775 56.3579 47.5886C55.9468 47.9998 55.3891 48.2308 54.8077 48.2308H2.19231C1.61087 48.2308 1.05325 47.9998 0.642112 47.5886C0.230975 47.1775 0 46.6199 0 46.0384C0 45.457 0.230975 44.8994 0.642112 44.4883C1.05325 44.0771 1.61087 43.8461 2.19231 43.8461H54.8077C55.3891 43.8461 55.9468 44.0771 56.3579 44.4883C56.769 44.8994 57 45.457 57 46.0384ZM57 4.38461V35.0769C57 36.2398 56.538 37.355 55.7158 38.1773C54.8935 38.9996 53.7783 39.4615 52.6154 39.4615H4.38462C3.22174 39.4615 2.1065 38.9996 1.28422 38.1773C0.461949 37.355 0 36.2398 0 35.0769V4.38461C0 3.22174 0.461949 2.1065 1.28422 1.28422C2.1065 0.461949 3.22174 0 4.38462 0H52.6154C53.7783 0 54.8935 0.461949 55.7158 1.28422C56.538 2.1065 57 3.22174 57 4.38461ZM38.3654 19.7308C38.3653 19.3785 38.2803 19.0315 38.1176 18.719C37.955 18.4066 37.7194 18.1379 37.4309 17.9358L26.4694 10.2627C26.1409 10.0326 25.7556 9.89704 25.3554 9.87072C24.9552 9.8444 24.5555 9.92836 24.1997 10.1135C23.8439 10.2986 23.5458 10.5777 23.3376 10.9205C23.1295 11.2633 23.0193 11.6566 23.0192 12.0577V27.4038C23.0193 27.8049 23.1295 28.1982 23.3376 28.541C23.5458 28.8838 23.8439 29.163 24.1997 29.3481C24.5555 29.5332 24.9552 29.6171 25.3554 29.5908C25.7556 29.5645 26.1409 29.4289 26.4694 29.1988L37.4309 21.5257C37.7194 21.3236 37.955 21.055 38.1176 20.7425C38.2803 20.4301 38.3653 20.083 38.3654 19.7308Z" fill="#FFF2DF"/>
</svg>
