<svg width="35" height="35" viewBox="0 0 35 35" fill="none" xmlns="http://www.w3.org/2000/svg">
<path d="M17.5 33C26.0604 33 33 26.0604 33 17.5C33 8.93959 26.0604 2 17.5 2C8.93959 2 2 8.93959 2 17.5C2 26.0604 8.93959 33 17.5 33Z" stroke="#FFF2DF" stroke-width="4" stroke-linecap="round" stroke-linejoin="round"/>
<path d="M5.875 27.575L12.075 20.6L24.475 30.675" stroke="#FFF2DF" stroke-width="4" stroke-linecap="round" stroke-linejoin="round"/>
<path d="M12.85 15.175C14.5621 15.175 15.95 13.7871 15.95 12.075C15.95 10.3629 14.5621 8.975 12.85 8.975C11.1379 8.975 9.75 10.3629 9.75 12.075C9.75 13.7871 11.1379 15.175 12.85 15.175Z" stroke="#FFF2DF" stroke-width="4"/>
<path d="M17.5 24.475L23.7 16.725L31.45 22.925" stroke="#FFF2DF" stroke-width="4" stroke-linecap="round" stroke-linejoin="round"/>
</svg>
