<svg width="57" height="57" viewBox="0 0 57 57" fill="none" xmlns="http://www.w3.org/2000/svg">
<path d="M25.5631 7.12045C26.0283 7.05404 26.4758 6.89666 26.8802 6.65729C27.2845 6.41792 27.6378 6.10125 27.9198 5.72536C28.2017 5.34947 28.4069 4.92173 28.5236 4.46655C28.6402 4.01136 28.6661 3.53766 28.5997 3.07249C28.5333 2.60731 28.3759 2.15977 28.1365 1.75541C27.8972 1.35106 27.5805 0.997811 27.2046 0.715839C26.8287 0.433868 26.401 0.228693 25.9458 0.112032C25.4906 -0.0046297 25.0169 -0.0304941 24.5517 0.035915C19.2923 0.792692 14.3472 2.99824 10.27 6.40571C6.19285 9.81318 3.14441 14.2881 1.46591 19.3296C-0.212589 24.3712 -0.454908 29.7803 0.766073 34.9518C1.98706 40.1232 4.62316 44.8528 8.37933 48.6111C12.1355 52.3695 16.8635 55.0084 22.0342 56.2324C27.2049 57.4565 32.6143 57.2173 37.6568 55.5418C42.6993 53.8663 47.176 50.8205 50.5859 46.7453C53.9957 42.6701 56.2042 37.7263 56.9641 32.4673C57.0982 31.5279 56.8536 30.5736 56.2841 29.8145C55.7147 29.0553 54.867 28.5535 53.9275 28.4194C52.988 28.2853 52.0338 28.5298 51.2746 29.0993C50.5155 29.6688 50.0137 30.5165 49.8795 31.456C49.3084 35.3997 47.6512 39.1066 45.0933 42.1621C42.5354 45.2176 39.1777 47.5011 35.396 48.757C31.6142 50.013 27.5576 50.1918 23.68 49.2736C19.8024 48.3553 16.2568 46.3762 13.4399 43.5577C10.6231 40.7392 8.64603 37.1924 7.73007 33.3143C6.81411 29.4361 6.99534 25.3796 8.2535 21.5986C9.51166 17.8176 11.7971 14.4613 14.8541 11.9052C17.9111 9.34905 21.6191 7.68924 25.5631 7.12045ZM38.1722 1.37649C37.277 1.06017 36.2928 1.11242 35.4361 1.52174C34.5795 1.93106 33.9205 2.66392 33.6042 3.5591C33.2879 4.45428 33.3401 5.43846 33.7494 6.29512C34.1587 7.15178 34.8916 7.81076 35.7868 8.12708C37.2276 8.63595 38.5888 9.28477 39.8705 10.0735C40.2707 10.3342 40.719 10.5121 41.189 10.5968C41.6591 10.6815 42.1413 10.6712 42.6073 10.5666C43.0732 10.462 43.5136 10.2651 43.9023 9.98764C44.291 9.71016 44.6202 9.35767 44.8706 8.95095C45.1209 8.54424 45.2873 8.09152 45.3599 7.61948C45.4325 7.14745 45.4099 6.66566 45.2934 6.2025C45.1769 5.73935 44.9688 5.3042 44.6815 4.92272C44.3941 4.54125 44.0333 4.22115 43.6203 3.98131C41.9012 2.92336 40.075 2.05023 38.1722 1.37649ZM53.033 13.3987C52.7931 12.9857 52.473 12.6249 52.0916 12.3376C51.7101 12.0503 51.275 11.8422 50.8118 11.7257C50.3486 11.6092 49.8668 11.5866 49.3948 11.6592C48.9228 11.7318 48.4701 11.8982 48.0633 12.1485C47.6566 12.3988 47.3041 12.7281 47.0267 13.1168C46.7492 13.5055 46.5523 13.9458 46.4477 14.4118C46.3431 14.8778 46.3328 15.36 46.4175 15.83C46.5022 16.3 46.6801 16.7484 46.9408 17.1485C47.7263 18.4207 48.372 19.7724 48.8777 21.2037C49.2051 22.0835 49.8652 22.7994 50.7157 23.197C51.5661 23.5946 52.5388 23.642 53.4239 23.3291C54.309 23.0161 55.0356 22.3678 55.4471 21.524C55.8586 20.6801 55.9219 19.7084 55.6235 18.8183C54.9525 16.9259 54.0842 15.1094 53.033 13.3987ZM28.6307 17.6399C28.6307 16.691 28.2537 15.7809 27.5827 15.1099C26.9117 14.4388 26.0016 14.0619 25.0526 14.0619C24.1037 14.0619 23.1936 14.4388 22.5226 15.1099C21.8516 15.7809 21.4746 16.691 21.4746 17.6399V31.9521C21.4746 33.9272 23.0776 35.5302 25.0526 35.5302H34.5941C35.5431 35.5302 36.4532 35.1532 37.1242 34.4822C37.7952 33.8112 38.1722 32.9011 38.1722 31.9521C38.1722 31.0032 37.7952 30.0931 37.1242 29.422C36.4532 28.751 35.5431 28.3741 34.5941 28.3741H28.6307V17.6399Z" fill="#FFF2DF"/>
</svg>
